# xmcd
#
# Track frame offsets: 
#        150
#        7700
#        14445
#        23377
#        32493
#        39332
#        48721
#        55371
#        65240
#        75884
#        84973
#        89558
#        98196
#        107201
#        114510
#        123116
#        131590
#        138300
#
# Disc length: 2016 seconds
#
# Revision: 0
# Processed by: cddbd v1.5.2PL0 Copyright (c) Steve Scherf et al.
# Submitted via: ExactAudioCopy v1.3
#
DISCID=d907de12
DTITLE=Various Artist - Western Swing and Pretty Things (Digitally Re
DTITLE=mastered)
DYEAR=1900
DGENRE=Western Swing
TTITLE0=Jimmy Wakely - Anytime
TTITLE1=Bobby Bruce and Billy Wright - Devil's Dream
TTITLE2=Noel Boggs and Jimmy Wyble - Boggs Boogie
TTITLE3=Bobby Bruce and Paul T. Smith - Blue Skies
TTITLE4=Noel Boggs - Texas Playboy Rag
TTITLE5=Bobby Bruce - Tenderly
TTITLE6=The Fiddlers Three - By The Waters Of Minnetonka
TTITLE7=Eddie Carver - Caravan
TTITLE8=Jimmy Wakely and The Three Rays - Too Ra Loo Ro Loo Rah
TTITLE9=Jimmy Wakely - Just Because
TTITLE10=The Fiddlers Three - Cattle Call
TTITLE11=Jimmy Wyble - Horsehair Boogie
TTITLE12=The Three Rays - Milkman Keep Those Bottles Quiet
TTITLE13=Bobby Bruce - The World Is Waiting For The Sunrise
TTITLE14=Noel Boggs - Lover
TTITLE15=Jack Rivers - Bill Bailey
TTITLE16=Bobby Bruce and Neil LeVang - Farewell Blues
TTITLE17=Jimmy Wakely - Little Old Rag Doll
EXTD=
EXTT0=
EXTT1=
EXTT2=
EXTT3=
EXTT4=
EXTT5=
EXTT6=
EXTT7=
EXTT8=
EXTT9=
EXTT10=
EXTT11=
EXTT12=
EXTT13=
EXTT14=
EXTT15=
EXTT16=
EXTT17=
PLAYORDER=
